<svg xmlns="http://www.w3.org/2000/svg" viewBox="0 0 120 40" fill="none" aria-hidden="true">
  <rect width="120" height="40" rx="4" fill="#111114"/>
  <path d="M24 28c-4.4 0-8-2.4-8-6.4S19.6 15 24 15c2.2 0 4 .8 5.2 2.2l-2.4 2c-.6-.8-1.4-1.2-2.6-1.2-2 0-3.4 1.4-3.4 3.4S22.2 25 24 25c1.2 0 2-.4 2.6-1.2l2.4 2C28 27.2 26.2 28 24 28z" fill="#d4a853"/>
  <path d="M36 28V15h3.6v5h4.8V15H48v13h-3.6v-5.2H39.6V28H36z" fill="#ececf1"/>
  <ellipse cx="88" cy="20" rx="10" ry="6" stroke="#d4a853" stroke-width="1.5"/>
  <path d="M84 20c0-2.2 1.8-4 4-4" stroke="#d4a853" stroke-width="1.5" stroke-linecap="round"/>
</svg>
