<svg xmlns="http://www.w3.org/2000/svg" viewBox="0 0 800 800" role="img" aria-label="عسل آویشن کردستان">
  <defs>
    <linearGradient id="bg-p008" x1="0%" y1="0%" x2="100%" y2="100%">
      <stop offset="0%" stop-color="#FFEDD5"/>
      <stop offset="50%" stop-color="#B4530922"/>
      <stop offset="100%" stop-color="#78350F44"/>
    </linearGradient>
    <radialGradient id="glow-p008" cx="50%" cy="40%" r="60%">
      <stop offset="0%" stop-color="#B45309" stop-opacity="0.35"/>
      <stop offset="100%" stop-color="#B45309" stop-opacity="0"/>
    </radialGradient>
    <linearGradient id="jar-p008" x1="0%" y1="0%" x2="0%" y2="100%">
      <stop offset="0%" stop-color="#B45309"/>
      <stop offset="100%" stop-color="#78350F"/>
    </linearGradient>
  </defs>
  <rect width="800" height="800" fill="url(#bg-p008)"/>
  <circle cx="400" cy="320" r="280" fill="url(#glow-p008)"/>
  <g transform="translate(400,380)">
    <path d="M-120,-80 L120,-80 L140,180 Q140,220 100,220 L-100,220 Q-140,220 -140,180 Z" fill="url(#jar-p008)" opacity="0.9"/>
    <ellipse cx="0" cy="-80" rx="120" ry="28" fill="#78350F"/>
    <ellipse cx="0" cy="40" rx="90" ry="70" fill="#FFEDD5" opacity="0.5"/>
    <path d="M-60,120 Q0,160 60,120" stroke="#78350F" stroke-width="4" fill="none" opacity="0.6"/>
  </g>
  <g opacity="0.15" fill="#78350F">
    <polygon points="120,120 140,150 110,150"/>
    <polygon points="680,200 700,230 670,230"/>
    <polygon points="200,650 220,680 190,680"/>
    <polygon points="600,580 620,610 590,610"/>
  </g>
</svg>