<svg xmlns="http://www.w3.org/2000/svg" viewBox="0 0 800 800" role="img" aria-label="ست هدیه">
  <defs>
    <linearGradient id="bg-cat-gift-set" x1="0%" y1="0%" x2="100%" y2="100%">
      <stop offset="0%" stop-color="#EDE9FE"/>
      <stop offset="50%" stop-color="#7C3AED22"/>
      <stop offset="100%" stop-color="#5B21B644"/>
    </linearGradient>
    <radialGradient id="glow-cat-gift-set" cx="50%" cy="40%" r="60%">
      <stop offset="0%" stop-color="#7C3AED" stop-opacity="0.35"/>
      <stop offset="100%" stop-color="#7C3AED" stop-opacity="0"/>
    </radialGradient>
    <linearGradient id="jar-cat-gift-set" x1="0%" y1="0%" x2="0%" y2="100%">
      <stop offset="0%" stop-color="#7C3AED"/>
      <stop offset="100%" stop-color="#5B21B6"/>
    </linearGradient>
  </defs>
  <rect width="800" height="800" fill="url(#bg-cat-gift-set)"/>
  <circle cx="400" cy="320" r="280" fill="url(#glow-cat-gift-set)"/>
  <g transform="translate(400,380)">
    <path d="M-120,-80 L120,-80 L140,180 Q140,220 100,220 L-100,220 Q-140,220 -140,180 Z" fill="url(#jar-cat-gift-set)" opacity="0.9"/>
    <ellipse cx="0" cy="-80" rx="120" ry="28" fill="#5B21B6"/>
    <ellipse cx="0" cy="40" rx="90" ry="70" fill="#EDE9FE" opacity="0.5"/>
    <path d="M-60,120 Q0,160 60,120" stroke="#5B21B6" stroke-width="4" fill="none" opacity="0.6"/>
  </g>
  <g opacity="0.15" fill="#5B21B6">
    <polygon points="120,120 140,150 110,150"/>
    <polygon points="680,200 700,230 670,230"/>
    <polygon points="200,650 220,680 190,680"/>
    <polygon points="600,580 620,610 590,610"/>
  </g>
</svg>